<?xml version="1.0" encoding="utf-8"?>
<!DOCTYPE svg PUBLIC "-//W3C//DTD SVG 1.0//EN" "http://www.w3.org/TR/2001/REC-SVG-20010904/DTD/svg10.dtd">
<svg version="1.0" xmlns="http://www.w3.org/2000/svg" width="752px" height="236px" viewBox="0 0 752 236" preserveAspectRatio="xMidYMid meet">

 <g fill="#a8c7e7">
  <path d="M300.65 168.30 c-9 -2.20 -16 -9.25 -17.65 -17.80 -0.30 -1.50 -0.75 -3.45 -1.05 -4.30 -0.55 -1.90 -0.60 -5.20 0 -5.20 0.20 0 0.55 -1.30 0.70 -2.85 0.75 -8.05 6 -16.80 13 -21.55 10.55 -7.25 25.85 -7.45 33.25 -0.40 1.65 1.50 1.70 1.55 2.40 0.55 0.40 -0.55 0.65 -1.40 0.50 -1.85 -0.10 -0.50 0 -0.90 0.25 -0.90 0.25 0 0.45 -0.45 0.45 -1 0 -0.95 0.35 -1 8.50 -1 l8.50 0 -0.30 1.40 c-0.20 0.75 -0.50 1.40 -0.70 1.50 -0.15 0.05 -0.20 0.80 -0.10 1.60 0.10 0.85 0 1.50 -0.30 1.50 -0.30 0 -0.40 0.45 -0.25 1 0.15 0.55 0.05 1 -0.20 1 -0.25 0 -0.40 0.70 -0.25 1.50 0.10 0.80 0 1.50 -0.20 1.50 -0.25 0 -0.50 1.05 -0.50 2.30 -0.05 1.30 -0.30 2.45 -0.50 2.65 -0.25 0.15 -0.50 1.30 -0.55 2.50 -0.10 1.25 -0.30 2.35 -0.50 2.50 -0.25 0.15 -0.45 1.30 -0.50 2.50 -0.10 1.25 -0.40 2.40 -0.65 2.55 -0.30 0.20 -0.40 0.70 -0.20 1.15 0.15 0.45 0.10 0.85 -0.15 0.85 -0.25 0 -0.40 0.70 -0.25 1.50 0.10 0.85 0 1.50 -0.20 1.50 -0.25 0 -0.50 1.05 -0.55 2.35 -0.05 1.30 -0.30 2.45 -0.60 2.55 -0.30 0.10 -0.40 0.70 -0.25 1.40 0.15 0.65 0.10 1.20 -0.15 1.20 -0.25 0 -0.40 0.70 -0.25 1.50 0.10 0.85 0 1.50 -0.30 1.50 -0.30 0 -0.40 0.45 -0.25 1 0.15 0.55 0.05 1 -0.20 1 -0.30 0 -0.40 0.55 -0.25 1.25 0.10 0.75 0 1.25 -0.35 1.25 -0.35 0 -0.45 0.45 -0.25 1.25 0.15 0.70 0.10 1.25 -0.20 1.25 -0.25 0 -0.35 0.55 -0.20 1.25 0.10 0.75 0 1.25 -0.35 1.25 -0.35 0 -0.45 0.45 -0.25 1.25 0.15 0.70 0.10 1.25 -0.20 1.25 -0.25 0 -0.35 0.55 -0.20 1.25 l0.20 1.25 -8.10 0 -8.15 0 0.35 -2 c0.30 -1.90 0.25 -2 -0.95 -2 -0.75 0 -1.25 0.30 -1.25 0.70 0 0.40 -1 1.15 -2.25 1.75 -5.15 2.40 -12.20 3.15 -17.60 1.85z m15.70 -14.10 c0.15 -0.45 0.65 -0.70 1.25 -0.55 1.95 0.55 8.90 -6.65 8.20 -8.50 -0.15 -0.35 -0.10 -0.65 0.15 -0.65 0.75 0 1.55 -3.85 1.55 -7.55 -0.05 -5.70 -2.60 -9.95 -6.95 -11.40 -4.15 -1.35 -13.45 0 -14.65 2.15 -0.25 0.45 -0.80 0.80 -1.20 0.80 -0.40 0 -0.95 0.55 -1.20 1.25 -0.25 0.70 -0.65 1.25 -0.85 1.25 -0.25 0 -0.85 0.90 -1.35 2 -0.55 1.10 -1.15 2 -1.35 2 -0.25 0 -0.30 0.35 -0.15 0.75 0.20 0.40 0.10 0.75 -0.15 0.75 -0.25 0 -0.40 0.70 -0.25 1.50 0.15 0.90 0 1.50 -0.35 1.50 -0.65 0 -0.75 5.10 -0.10 5.80 0.25 0.25 0.60 1.20 0.70 2.10 0.35 2.30 2.50 4.90 5.25 6.35 1.95 1 3.10 1.20 6.75 1.25 3.55 0 4.45 -0.15 4.70 -0.80z"/>
  <path d="M374.75 168.25 c-6.30 -1.40 -10.50 -3.60 -14.45 -7.55 -8.25 -8.35 -9 -23 -1.80 -34.35 1.95 -3.10 8 -9.35 9 -9.35 0.30 0 0.50 -0.30 0.50 -0.70 0 -0.35 0.60 -0.80 1.40 -0.95 0.75 -0.15 2.75 -0.85 4.50 -1.60 7.75 -3.25 18.50 -3.60 25.85 -0.75 0.85 0.35 1.90 0.65 2.40 0.75 3.25 0.65 12 10.10 10.75 11.60 -0.75 0.90 -12.10 6.65 -13.15 6.65 -0.40 0 -0.75 -0.20 -0.75 -0.45 0 -1 -3.70 -4.55 -5.75 -5.50 -2.55 -1.20 -8.10 -1.45 -11.20 -0.50 -2.60 0.80 -5.55 2.95 -7.30 5.30 -0.80 1.15 -1.75 2.10 -2.10 2.10 -0.35 0.05 -0.50 0.35 -0.35 0.75 0.15 0.35 -0.05 1 -0.40 1.35 -0.35 0.40 -0.70 1.80 -0.80 3.20 -0.10 1.35 -0.45 2.65 -0.75 2.85 -0.40 0.25 -0.40 0.80 0 2.15 0.35 1 0.45 2.15 0.30 2.55 -0.15 0.40 0 0.70 0.30 0.70 0.30 0 0.55 0.50 0.55 1.15 0 1.65 3.30 5.30 5.70 6.40 2.75 1.25 10.65 1.35 11.15 0.20 0.15 -0.45 0.65 -0.75 1.10 -0.70 1.55 0.25 2.90 -0.55 5.05 -3.05 1.20 -1.40 2.35 -2.50 2.60 -2.50 0.35 0 2.95 1.45 6.80 3.75 0.75 0.45 4.95 3.20 5.55 3.60 0.25 0.15 -0.05 0.50 -4.30 4.90 -6.95 7.20 -19.30 10.45 -30.40 8z"/>
  <path d="M503 168.30 c-3.90 -1.20 -4.95 -1.70 -7.20 -3.80 -5.30 -4.90 -5.75 -9.95 -2.40 -26.40 1.15 -5.60 2.10 -10.60 2.10 -11.15 0 -0.85 -0.40 -0.95 -4 -0.95 -4.50 0 -4.50 0.05 -3.50 -4.10 0.30 -1.20 0.80 -3.60 1.15 -5.40 l0.65 -3.25 4.25 -0.15 4.25 -0.15 0.55 -2.35 c0.30 -1.30 0.85 -3.70 1.15 -5.35 1.05 -5.15 1.30 -6 1.65 -5.85 0.20 0.05 3.90 0.10 8.25 0.10 l7.90 0 -0.20 1.75 c-0.10 0.95 -0.40 1.75 -0.60 1.75 -0.25 0 -0.30 0.45 -0.15 1 0.15 0.55 0.05 1 -0.20 1 -0.25 0 -0.40 0.65 -0.25 1.50 0.10 0.80 0 1.50 -0.20 1.50 -0.25 0 -0.50 1.15 -0.55 2.50 l-0.15 2.50 6.45 0 c3.60 0 6.60 0.20 6.75 0.45 0.35 0.55 -1.25 9.25 -1.75 9.45 -0.25 0.10 -0.25 0.50 -0.10 0.90 0.15 0.40 0 1.05 -0.35 1.45 -0.50 0.60 -2 0.75 -7.30 0.75 -6.35 0 -6.70 0.05 -6.70 1 0 0.55 -0.25 1 -0.55 1 -0.30 0 -0.40 0.45 -0.20 1 0.15 0.55 0.10 1 -0.15 1 -0.25 0 -0.35 0.70 -0.20 1.50 0.15 0.90 0 1.50 -0.35 1.50 -0.35 0 -0.45 0.45 -0.25 1.25 0.15 0.70 0.10 1.25 -0.20 1.25 -0.25 0 -0.35 0.55 -0.20 1.25 0.10 0.70 0 1.25 -0.20 1.25 -0.25 0 -0.50 1.05 -0.55 2.30 -0.05 1.30 -0.25 2.50 -0.50 2.65 -0.20 0.15 -0.45 1.40 -0.50 2.80 -0.05 1.35 -0.35 2.55 -0.65 2.65 -0.65 0.25 -0.65 1.85 0.10 3.25 0.30 0.60 0.70 1.45 0.90 1.85 0.15 0.40 1.20 1.20 2.25 1.70 1.90 0.95 2.05 0.95 4.95 0.10 4.40 -1.20 4.55 -1.20 4.50 0.10 0 0.60 0.20 1.10 0.45 1.10 0.25 0 0.35 0.70 0.25 1.50 -0.15 0.85 -0.05 1.50 0.20 1.50 0.25 0 0.30 0.45 0.15 1 -0.15 0.55 -0.10 1 0.15 1 0.70 0 1 3.30 0.35 4.15 -1.75 2.45 -14.30 4.15 -19.25 2.65z"/>
  <path d="M542.45 168.25 c-6.45 -1.10 -13.70 -3.65 -14.65 -5.20 -0.30 -0.45 2 -5.20 4.30 -8.90 0.55 -0.90 0.85 -1.85 0.70 -2.10 -0.60 -0.95 1.25 -1 2.85 -0.05 1.85 1.10 4.85 2.25 8.85 3.35 4 1.10 14.25 1.10 16.35 0 1.90 -1 3.15 -2.65 3.15 -4.15 0 -2.10 -1.50 -3.10 -6.50 -4.20 -16.40 -3.65 -19.85 -5.35 -22.30 -11.25 -1.05 -2.60 -0.90 -8.15 0.35 -11.60 4.35 -11.80 26.45 -16.75 44.45 -10 1.50 0.55 2.95 1.20 3.25 1.45 0.45 0.40 -1.60 4.90 -2.30 4.90 -0.15 0 -0.30 0.30 -0.30 0.65 0 1.10 -1.80 4.60 -2.85 5.45 -0.95 0.75 -1.15 0.75 -2.80 -0.10 -3.65 -1.85 -7.60 -2.60 -13.55 -2.60 -6.10 0 -7.15 0.25 -9.55 2.50 -2.15 2 -1.80 4 0.90 5.45 2 1.05 3.65 1.55 9.25 2.65 10.15 2.05 12.40 3.20 17 8.90 0.30 0.35 0.40 0.95 0.30 1.35 -0.15 0.35 -0.15 0.75 -0.05 0.90 0.40 0.40 0.55 6.85 0.15 6.85 -0.20 0 -0.25 0.45 -0.10 1 0.15 0.55 0.05 1 -0.25 1 -0.30 0 -0.40 0.40 -0.25 0.90 0.15 0.55 -0.35 1.55 -1.25 2.50 -0.80 0.85 -1.35 1.70 -1.20 1.85 0.40 0.40 -1.45 2.25 -2.25 2.25 -0.35 0 -0.80 0.35 -0.95 0.75 -0.40 1 -3.75 2.95 -6.95 4 -6.55 2.20 -16.15 2.80 -23.80 1.50z"/>
  <path d="M236.35 167.65 c-0.10 -0.25 0.90 -5.80 2.20 -12.40 1.35 -6.60 2.30 -12.70 2.20 -13.55 -0.10 -0.85 -4.20 -11.40 -9.05 -23.50 -4.85 -12.05 -8.95 -22.25 -9.05 -22.55 -0.20 -0.50 1.65 -0.65 8.15 -0.65 4.65 0 8.75 0.20 9.05 0.40 0.35 0.20 0.70 0.85 0.80 1.35 0.10 0.55 0.45 1.50 0.75 2.10 0.35 0.65 0.45 1.15 0.25 1.15 -0.20 0 -0.15 0.20 0.20 0.40 0.30 0.20 0.65 0.80 0.75 1.35 0.05 0.55 0.30 1.10 0.50 1.25 0.20 0.15 0.45 0.75 0.55 1.25 0.10 0.55 0.45 1.50 0.75 2.10 0.35 0.65 0.50 1.15 0.35 1.15 -0.15 0 0.10 0.55 0.55 1.25 0.45 0.70 0.65 1.25 0.45 1.25 -0.20 0 -0.10 0.30 0.20 0.65 0.30 0.40 0.40 0.85 0.20 1 -0.15 0.20 -0.05 0.35 0.25 0.35 0.35 0 0.55 0.15 0.50 0.40 -0.05 0.20 0.15 0.85 0.50 1.40 0.30 0.60 0.40 1.20 0.25 1.40 -0.15 0.15 -0.05 0.30 0.30 0.30 0.35 0 0.55 0.30 0.40 0.70 -0.15 0.35 0.15 1.30 0.65 2.05 0.55 0.80 0.85 1.60 0.70 1.80 -0.10 0.20 0 0.50 0.30 0.70 0.30 0.20 0.40 0.55 0.25 0.80 -0.20 0.25 -0.05 0.45 0.30 0.45 0.35 0 0.45 0.15 0.30 0.35 -0.20 0.15 -0.10 0.60 0.15 0.95 0.30 0.30 0.65 1.10 0.75 1.70 0.10 0.65 0.35 1.25 0.50 1.40 0.40 0.40 4.30 -3.90 4 -4.45 -0.20 -0.25 0 -0.45 0.40 -0.45 0.35 0 1.45 -1.05 2.35 -2.35 0.95 -1.35 1.90 -2.50 2.10 -2.55 0.25 -0.10 1.15 -1.25 2 -2.50 0.90 -1.30 2 -2.70 2.50 -3.10 0.45 -0.40 0.90 -1.05 1 -1.45 0.10 -0.40 0.85 -1.35 1.70 -2.10 0.85 -0.80 2.20 -2.35 3 -3.55 0.80 -1.20 1.80 -2.50 2.25 -2.90 0.45 -0.40 1.75 -1.95 2.90 -3.35 l2.15 -2.65 8.35 0 c7.70 0 8.35 0.05 8.40 0.90 0.05 0.50 -0.80 1.80 -1.90 2.85 -1.05 1 -1.95 2.15 -1.95 2.55 0 0.35 -0.55 1.05 -1.25 1.60 -0.70 0.55 -1.25 1.20 -1.25 1.50 0 0.25 -0.35 0.60 -0.75 0.80 -0.40 0.15 -0.75 0.55 -0.75 0.95 0 0.35 -0.90 1.60 -2 2.75 -1.10 1.10 -2 2.25 -2 2.50 0 0.20 -0.90 1.35 -2 2.50 -1.10 1.10 -2 2.20 -2 2.40 0 0.20 -0.35 0.70 -0.75 1.15 -2.20 2.40 -3.60 4.05 -4.25 5.05 -0.40 0.65 -1.25 1.70 -1.85 2.30 -0.65 0.55 -1.15 1.30 -1.15 1.60 0 0.30 -0.45 0.80 -1 1.10 -0.55 0.30 -1 0.85 -1 1.30 0 0.40 -0.35 0.85 -0.75 1 -0.40 0.20 -0.75 0.60 -0.75 1 0 0.35 -0.55 1.05 -1.25 1.50 -0.70 0.45 -1.25 1.15 -1.25 1.50 0 0.40 -0.35 0.85 -0.75 1 -0.40 0.20 -0.75 0.60 -0.75 1 0 0.40 -0.65 1.10 -1.50 1.65 -0.80 0.50 -1.35 1.05 -1.15 1.25 0.20 0.20 0.15 0.50 -0.10 0.70 -0.75 0.55 -2.75 3.50 -2.75 4.10 0 0.25 -0.20 0.50 -0.45 0.50 -0.25 0 -0.35 0.45 -0.20 1 0.15 0.55 0.05 1 -0.20 1 -0.25 0 -0.40 0.70 -0.25 1.50 0.15 0.90 0 1.50 -0.35 1.50 -0.35 0 -0.45 0.45 -0.25 1.25 0.15 0.70 0.10 1.25 -0.20 1.25 -0.25 0 -0.35 0.55 -0.20 1.25 0.10 0.70 0 1.25 -0.20 1.25 -0.25 0 -0.50 1.05 -0.55 2.30 -0.05 1.30 -0.25 2.50 -0.50 2.65 -0.20 0.15 -0.45 1.45 -0.55 2.80 -0.05 1.40 -0.30 2.55 -0.55 2.65 -0.25 0.10 -0.35 0.60 -0.20 1.10 0.15 0.55 0 1 -0.30 1 -0.25 0 -0.40 0.35 -0.25 0.75 0.25 0.65 -0.85 0.75 -8.20 0.75 -4.70 0 -8.65 -0.15 -8.75 -0.35z"/>
  <path d="M413.90 167.70 c-0.15 -0.15 -0.10 -0.95 0.15 -1.85 0.25 -0.90 2.45 -12.05 4.95 -24.85 2.50 -12.80 5.60 -28.25 6.80 -34.40 1.25 -6.10 2.10 -11.35 1.95 -11.60 -0.15 -0.30 -0.05 -0.50 0.20 -0.50 0.30 0 0.55 -0.60 0.55 -1.30 0 -2.95 0.15 -2.95 8.80 -2.70 l7.95 0.25 0.15 1.40 c0.10 0.75 -0.10 1.35 -0.40 1.35 -0.30 0 -0.40 0.25 -0.25 0.50 0.40 0.60 -1.30 9.50 -1.75 9.50 -0.20 0 -0.25 0.55 -0.10 1.25 0.10 0.70 0 1.25 -0.25 1.25 -0.30 0 -0.40 0.55 -0.25 1.25 0.10 0.70 0 1.25 -0.25 1.25 -0.30 0 -0.40 0.55 -0.25 1.25 0.10 0.70 0 1.25 -0.30 1.25 -0.30 0 -0.40 0.45 -0.25 1.05 0.15 0.60 0.05 1.20 -0.20 1.40 -0.30 0.15 -0.35 0.75 -0.15 1.35 0.40 1 0.50 1 4.15 -0.80 9.45 -4.60 21.65 -3.65 27.45 2.10 1.65 1.70 4.95 7 4.85 7.75 -0.05 0.25 0 0.50 0.05 0.65 0.35 0.75 0.40 11 0.05 11 -0.20 0 -0.30 0.70 -0.15 1.50 0.10 0.85 0 1.50 -0.30 1.50 -0.30 0 -0.40 0.45 -0.25 1 0.15 0.55 0.05 1 -0.20 1 -0.25 0 -0.40 0.70 -0.25 1.50 0.10 0.85 0 1.50 -0.30 1.50 -0.30 0 -0.40 0.45 -0.25 1 0.15 0.55 0.05 1 -0.20 1 -0.25 0 -0.40 0.70 -0.25 1.50 0.10 0.85 0 1.50 -0.30 1.50 -0.30 0 -0.40 0.45 -0.25 1 0.15 0.55 0.05 1 -0.20 1 -0.25 0 -0.40 0.70 -0.25 1.50 0.10 0.85 0 1.50 -0.30 1.50 -0.30 0 -0.40 0.45 -0.25 1 0.15 0.55 0.05 1 -0.20 1 -0.25 0 -0.40 0.70 -0.25 1.50 0.10 0.85 0 1.50 -0.30 1.50 -0.30 0 -0.40 0.45 -0.25 1 0.15 0.55 0.05 1 -0.20 1 -0.25 0 -0.40 0.70 -0.25 1.50 0.10 0.85 0 1.50 -0.25 1.50 -0.25 0 -0.50 0.40 -0.50 0.90 0.05 0.45 0 1.45 -0.05 2.25 l-0.10 1.35 -8.55 0 -8.55 0 0.25 -1.10 c0.15 -0.65 1.55 -7.45 3.15 -15.15 2.90 -14.25 3.65 -21.70 2.30 -22.15 -0.35 -0.10 -0.60 -0.50 -0.60 -0.85 0 -0.40 -0.75 -1.20 -1.60 -1.85 -1.40 -1 -2.25 -1.15 -5.90 -1.15 -2.45 0 -5.20 0.30 -6.50 0.75 -2.50 0.80 -5.95 4.05 -7.25 6.80 -0.45 0.95 -0.95 1.70 -1.15 1.70 -0.20 0 -0.40 0.70 -0.40 1.60 -0.05 0.90 -0.30 1.70 -0.60 1.80 -0.25 0.05 -0.40 0.60 -0.25 1.10 0.15 0.55 0.05 1 -0.20 1 -0.25 0 -0.40 0.70 -0.25 1.50 0.15 0.95 0 1.50 -0.35 1.50 -0.35 0 -0.45 0.25 -0.30 0.55 0.40 0.60 -1.20 9.45 -1.70 9.45 -0.15 0 -0.35 1.15 -0.45 2.60 -0.05 1.45 -0.25 2.70 -0.50 2.85 -0.20 0.15 -0.45 1.30 -0.50 2.55 -0.10 1.25 -0.35 2.30 -0.60 2.40 -0.20 0.10 -0.30 0.60 -0.15 1.10 0.15 0.55 0.05 1 -0.25 1 -0.30 0 -0.40 0.45 -0.25 1 0.25 0.95 0 1 -7.95 1 -4.55 0 -8.35 -0.15 -8.50 -0.30z"/>
  <path d="M701.50 152.50 c0 -0.25 0.90 -0.50 2 -0.50 1.10 0 2 0.25 2 0.50 0 0.30 -0.90 0.50 -2 0.50 -1.10 0 -2 -0.20 -2 -0.50z"/>
  <path d="M726 146.45 c0 -0.25 2.70 -0.45 6 -0.45 3.80 0 6 0.20 6 0.50 0 0.35 -2.15 0.50 -6 0.45 -3.30 0 -6 -0.25 -6 -0.50z"/>
 </g>
 <g fill="#4e87b7">
  <path d="M117.30 168.25 c-5.60 -1.60 -9.90 -4.55 -13.05 -8.95 -3.50 -4.90 -4.35 -7.65 -4.65 -14.40 -0.40 -10.35 2.45 -18.45 8.85 -24.90 6.25 -6.35 12.65 -9 21.50 -9 7.50 0 11.45 1.35 15.45 5.15 1.45 1.45 2.10 1.80 2.10 1.25 0 -0.50 0.25 -2 0.55 -3.40 l0.55 -2.50 9.65 0 c5.35 0 9.80 0.15 9.90 0.40 0.15 0.20 -2.25 12.85 -5.35 28.10 l-5.55 27.75 -9.35 0.15 c-10.20 0.15 -9.80 0.25 -8.95 -2.80 0.25 -0.85 0.40 -1.60 0.25 -1.60 -0.10 0 -1.35 0.75 -2.80 1.70 -1.50 0.90 -3.80 2.05 -5.15 2.55 -3.35 1.15 -10.75 1.45 -13.95 0.50z m16.80 -15.85 c2.80 -0.80 6.10 -3.95 7.75 -7.30 1.20 -2.45 1.40 -3.45 1.40 -7.10 0 -5.15 -1.05 -7.55 -4.25 -9.70 -1.90 -1.30 -2.60 -1.50 -5.95 -1.50 -4.45 0 -6.95 1.05 -9.55 4 -4.70 5.40 -5.35 14.70 -1.35 19.15 2.50 2.70 7.55 3.75 11.95 2.45z"/>
  <path d="M51.10 167.15 c0.15 -0.50 1.35 -6.45 2.65 -13.25 l2.45 -12.30 -8.90 -22.30 c-4.90 -12.25 -9 -22.75 -9.15 -23.30 -0.25 -1 -0.05 -1 9.95 -1 l10.25 0 0.60 1.40 c0.35 0.75 1.90 4.50 3.40 8.35 5.85 15 7.25 18.50 7.50 18.75 0.25 0.30 1.15 -0.75 9.25 -10.95 3.40 -4.20 6.95 -8.65 7.90 -9.80 0.95 -1.20 2.75 -3.40 4 -4.95 l2.25 -2.80 10.40 0 c5.70 0 10.35 0.15 10.35 0.40 0 0.20 -1.10 1.60 -2.40 3.15 -1.95 2.30 -11.25 13.95 -23.25 29.20 -2.25 2.90 -4.05 5.15 -9.10 11.40 l-2.35 2.95 -2.55 12.80 -2.60 12.85 -10.45 0.15 c-9.75 0.10 -10.40 0.05 -10.20 -0.75z"/>
  <path d="M169.85 166.65 c0.15 -0.80 2.70 -13.45 5.65 -28.15 l5.30 -26.75 9.40 -0.15 9.35 -0.10 -0.35 2.80 -0.35 2.85 1.75 -1.30 c3.70 -2.85 9.80 -4.85 14.80 -4.85 2.70 0 3.10 0.10 3.10 0.90 0 0.50 -0.65 4.40 -1.50 8.65 -0.80 4.25 -1.50 7.75 -1.50 7.85 0 0.05 -1.15 0 -2.50 -0.20 -5.10 -0.70 -11.30 1.45 -14.35 5 -2.30 2.55 -3.05 5.05 -6.15 20.45 l-2.85 14.10 -10.05 0.15 -10.10 0.10 0.35 -1.35z"/>
  <path d="M689.25 152.45 c-14.65 -0.50 -18.90 -1.15 -39.50 -6 -24 -5.75 -35.25 -5.70 -46.95 0 l-3.85 1.90 -1.75 -2.70 c-0.95 -1.45 -1.70 -2.75 -1.70 -2.85 0 -0.45 6.50 -3.30 10 -4.35 3.45 -1.10 4.60 -1.20 13.75 -1.15 10.80 0 11 0.05 27.75 4.70 2.05 0.60 5.35 1.50 7.25 2 1.95 0.50 6.10 1.70 9.25 2.60 8.05 2.40 9.50 2.75 16 3.60 4.80 0.65 19.40 1.80 22.60 1.80 0.50 0 0.90 0.25 0.90 0.50 0 0.30 -0.75 0.45 -1.60 0.40 -0.90 -0.05 -6.35 -0.25 -12.15 -0.45z"/>
  <path d="M703.25 146.40 c-8.65 -0.75 -19.55 -2.55 -27.25 -4.40 -12.15 -3 -30.15 -6.90 -37 -8.05 -7.95 -1.30 -22.45 -1.85 -27.85 -1 -7.75 1.20 -12.35 2.75 -18.80 6.40 -1.65 0.90 -3.05 1.65 -3.15 1.65 -0.10 0 -1.30 -1.70 -2.70 -3.80 -2.30 -3.45 -2.70 -4.70 -1.50 -4.70 0.20 0 2.10 -0.80 4.15 -1.75 4.85 -2.25 12.65 -4.70 17.10 -5.25 12.60 -1.65 27.30 0.25 48.60 6.25 5.45 1.55 11 3.15 12.40 3.50 1.35 0.35 6.65 1.90 11.75 3.40 15.25 4.55 24.55 5.95 46.75 7.20 6.80 0.35 6.90 0.40 3.50 0.75 -4.40 0.45 -20.05 0.35 -26 -0.20z"/>
  <path d="M683.25 132.75 c-3.40 -1.25 -23.30 -7.40 -25.75 -8 -7.05 -1.65 -15.60 -2.80 -22.85 -3.10 -8.70 -0.35 -8.05 0.15 -7.15 -5.40 1.45 -9 2 -17.60 2 -30.95 0 -13.85 -0.35 -19.80 -2.50 -42.80 -0.60 -5.90 -1.20 -12.55 -1.35 -14.75 l-0.30 -3.95 3.20 3.70 c2.80 3.25 7.30 8.90 11.95 15 2.70 3.55 10.45 16.05 14.75 23.80 3.05 5.50 11.25 21.85 11.25 22.40 0 0.20 0.90 2.25 2 4.60 1.10 2.35 2 4.40 2 4.50 0 0.10 0.55 1.35 1.20 2.80 0.65 1.45 1.65 3.75 2.25 5.05 3.10 6.80 10.85 27.35 10.35 27.30 -0.30 0 -0.75 -0.10 -1.05 -0.20z"/>
  <path d="M599.65 121.70 c0.15 -0.50 1.35 -4.90 2.60 -9.70 3.55 -13.70 5.25 -19.85 6.80 -25 0.80 -2.60 2.35 -8.25 3.45 -12.50 1.10 -4.25 2.65 -9.90 3.45 -12.50 0.80 -2.60 2.10 -7.40 2.90 -10.60 0.75 -3.25 1.60 -5.90 1.80 -5.90 0.40 0 -0.05 75 -0.40 75.40 -0.10 0.10 -2 -0.20 -4.30 -0.65 -5.50 -1.15 -9.10 -0.65 -15.65 2 -0.75 0.35 -0.85 0.20 -0.65 -0.56z"/>
 </g>
</svg>