<svg width="414" height="569" viewBox="0 0 414 569" fill="none" xmlns="http://www.w3.org/2000/svg">
<path d="M354.724 685.037L-15.3202 605.399C-15.3202 605.399 27.7749 530.647 152.822 482.553C277.869 434.459 310.724 376.418 286.602 259.44C262.48 142.461 476.329 104.513 476.329 104.513L354.724 685.037Z" fill="url(#paint0_linear_333_1275)"/>
<mask id="mask0_333_1275" style="mask-type:alpha" maskUnits="userSpaceOnUse" x="-16" y="104" width="493" height="582">
<path d="M354.724 685.037L-15.3202 605.399C-15.3202 605.399 27.7749 530.647 152.822 482.553C277.869 434.459 310.724 376.418 286.602 259.44C262.48 142.461 476.329 104.513 476.329 104.513L354.724 685.037Z" fill="url(#paint1_linear_333_1275)"/>
</mask>
<g mask="url(#mask0_333_1275)">
<g filter="url(#filter0_f_333_1275)">
<path d="M71.8285 275.179C146.791 165.103 226.243 64.1207 294.155 94.2215C349.155 132.722 361.453 232.366 304.655 375.222C247.857 518.077 58.4675 560.16 -9.44469 530.06C-77.3569 499.959 -3.13344 385.255 71.8285 275.179Z" fill="url(#paint2_linear_333_1275)"/>
</g>
</g>
<path d="M379.533 692.926L58.8376 601.644C58.8376 601.644 101.546 538.009 214.702 502.562C327.858 467.114 360.484 417.671 346.711 312.918C332.937 208.166 523.624 186.7 523.624 186.7L379.533 692.926Z" fill="url(#paint3_linear_333_1275)"/>
<mask id="mask1_333_1275" style="mask-type:alpha" maskUnits="userSpaceOnUse" x="58" y="186" width="466" height="507">
<path d="M379.533 692.926L58.8376 601.644C58.8376 601.644 101.546 538.009 214.702 502.562C327.858 467.114 360.484 417.671 346.711 312.918C332.937 208.166 523.624 186.7 523.624 186.7L379.533 692.926Z" fill="url(#paint4_linear_333_1275)"/>
</mask>
<g mask="url(#mask1_333_1275)">
<g filter="url(#filter1_f_333_1275)">
<path d="M142.747 358.7C199.447 285.576 294.411 207.191 347.849 235.628C401.286 264.064 386.438 366.796 336.995 456.235C287.552 545.674 136.871 565.266 83.4337 536.829C29.9962 508.393 86.0465 431.823 142.747 358.7Z" fill="url(#paint5_linear_333_1275)"/>
</g>
</g>
<defs>
<filter id="filter0_f_333_1275" x="-86.1672" y="38.8364" width="477.929" height="550.393" filterUnits="userSpaceOnUse" color-interpolation-filters="sRGB">
<feFlood flood-opacity="0" result="BackgroundImageFix"/>
<feBlend mode="normal" in="SourceGraphic" in2="BackgroundImageFix" result="shape"/>
<feGaussianBlur stdDeviation="25" result="effect1_foregroundBlur_333_1275"/>
</filter>
<filter id="filter1_f_333_1275" x="11.9044" y="179.653" width="419.692" height="419.288" filterUnits="userSpaceOnUse" color-interpolation-filters="sRGB">
<feFlood flood-opacity="0" result="BackgroundImageFix"/>
<feBlend mode="normal" in="SourceGraphic" in2="BackgroundImageFix" result="shape"/>
<feGaussianBlur stdDeviation="25" result="effect1_foregroundBlur_333_1275"/>
</filter>
<linearGradient id="paint0_linear_333_1275" x1="318.663" y1="632.652" x2="245.359" y2="375.901" gradientUnits="userSpaceOnUse">
<stop stop-color="#320421"/>
<stop offset="1" stop-color="#502B76"/>
</linearGradient>
<linearGradient id="paint1_linear_333_1275" x1="318.663" y1="632.652" x2="245.359" y2="375.901" gradientUnits="userSpaceOnUse">
<stop stop-color="#320421"/>
<stop offset="1" stop-color="#502B76"/>
</linearGradient>
<linearGradient id="paint2_linear_333_1275" x1="260.155" y1="402.222" x2="437.621" y2="283.063" gradientUnits="userSpaceOnUse">
<stop stop-color="#7FC7DC" stop-opacity="0.9"/>
<stop offset="1" stop-color="#7FC7DC" stop-opacity="0.21"/>
</linearGradient>
<linearGradient id="paint3_linear_333_1275" x1="351.128" y1="644.59" x2="300.859" y2="413.984" gradientUnits="userSpaceOnUse">
<stop stop-color="#320421"/>
<stop offset="1" stop-color="#502B76"/>
</linearGradient>
<linearGradient id="paint4_linear_333_1275" x1="351.128" y1="644.59" x2="300.859" y2="413.984" gradientUnits="userSpaceOnUse">
<stop stop-color="#320421"/>
<stop offset="1" stop-color="#502B76"/>
</linearGradient>
<linearGradient id="paint5_linear_333_1275" x1="297.688" y1="458.874" x2="347.306" y2="558.293" gradientUnits="userSpaceOnUse">
<stop stop-color="#86CBE0"/>
<stop offset="1" stop-color="#7FC7DC" stop-opacity="0.21"/>
</linearGradient>
</defs>
</svg>
