<?xml version="1.0" standalone="no"?>
<!DOCTYPE svg PUBLIC "-//W3C//DTD SVG 20010904//EN"
 "http://www.w3.org/TR/2001/REC-SVG-20010904/DTD/svg10.dtd">
<svg version="1.0" xmlns="http://www.w3.org/2000/svg"
 width="656.000000pt" height="656.000000pt" viewBox="0 0 656.000000 656.000000"
 preserveAspectRatio="xMidYMid meet">
<metadata>
Created by potrace 1.14, written by Peter Selinger 2001-2017
</metadata>
<g transform="translate(0.000000,656.000000) scale(0.100000,-0.100000)"
fill="#000000" stroke="none">
<path d="M1695 5860 c51 -525 138 -1475 150 -1640 8 -118 20 -364 26 -546 19
-567 -16 -1172 -96 -1634 -25 -143 -58 -126 263 -133 577 -11 893 -78 1771
-372 173 -57 317 -103 319 -100 8 7 -282 745 -451 1150 -505 1204 -1002 2102
-1566 2830 -102 132 -299 369 -370 445 l-51 55 5 -55z"/>
<path d="M1500 5019 c-7 -24 -66 -240 -132 -479 -122 -444 -508 -1853 -644
-2350 -42 -151 -78 -283 -80 -292 -7 -24 3 -23 71 7 131 59 195 70 395 70 143
0 207 -4 282 -19 54 -11 100 -18 102 -15 7 6 29 3109 23 3116 -3 3 -11 -15
-17 -38z"/>
<path d="M956 1754 c-262 -34 -523 -112 -761 -229 -82 -40 -158 -79 -168 -87
-16 -12 -9 -25 88 -170 58 -87 107 -158 110 -158 2 0 37 21 76 46 219 142 540
251 869 295 148 20 592 17 785 -4 370 -42 668 -101 1435 -283 845 -201 1048
-238 1490 -276 174 -14 1058 -15 1365 -1 l180 9 -175 7 c-96 4 -303 12 -460
17 -781 29 -1210 91 -1805 261 -77 22 -302 89 -500 149 -958 289 -1323 376
-1780 425 -178 19 -598 18 -749 -1z"/>
<path d="M1222 1279 c-128 -12 -292 -46 -410 -85 -108 -35 -302 -125 -322
-150 -9 -10 6 -39 61 -121 39 -59 73 -109 74 -111 2 -2 29 14 61 34 265 169
660 248 1074 215 291 -24 543 -70 1075 -196 431 -102 433 -103 590 -135 260
-53 463 -75 775 -86 207 -8 802 4 795 16 -2 4 -123 10 -267 13 -308 8 -491 20
-715 47 -305 37 -479 78 -1005 236 -648 194 -850 246 -1108 289 -251 41 -488
53 -678 34z"/>
</g>
</svg>
